<svg width="1440" height="1455" viewBox="0 0 1440 1455" fill="none" xmlns="http://www.w3.org/2000/svg">
<path opacity="0.03" d="M801.695 1.8663C847.385 -6.3357 890.663 14.6035 934.423 23.867C993.091 37.6174 1055.57 62.8023 1087.32 117.418C1106.76 146.752 1102.32 183.372 1101.65 216.71C1100.97 246.093 1079.02 268.817 1058.8 287.585C1034.92 310.117 1000.71 317.257 968.823 316.389C929.26 315.279 889.167 319.284 850.184 310.792C822.442 305.533 794.41 300.419 766.041 301.432C714.079 302.638 661.296 297.621 610.299 310.406C467.97 344.758 351.164 460.985 309.286 600.371C300.746 631.587 289.89 662.851 290.18 695.611C290.132 731.796 287.864 768.416 295.342 804.118C312.615 897.284 360.91 984.852 432.171 1047.57C487.8 1100.16 560.026 1133.45 634.616 1148.51C681.608 1160.42 730.676 1156.9 778.585 1154.63C855.877 1142.19 932.493 1112.42 991.306 1059.63C1018.28 1033.39 1044.04 1005.5 1064.4 973.755C1092.82 925.026 1115.2 869.59 1111.2 812.127C1108.84 763.157 1066.76 718.769 1017.21 716.743C978.473 715.633 939.682 716.55 900.939 716.405C886.417 716.502 868.035 716.646 859.785 731.024C858.53 752.784 876.961 773.916 866.684 795.482C857.131 820.619 825.722 833.453 801.116 823.321C780.515 814.588 765.027 796.013 757.453 775.315C741.145 716.068 774.098 648.087 830.113 623.288C865.478 605.148 906.247 610.406 944.555 609.635C991.692 610.648 1040.33 605.099 1085.87 620.587C1130.69 637.521 1169.19 671.487 1189.89 714.91C1207.84 750.226 1215.08 790.078 1215.94 829.4C1214.3 873.401 1201.28 915.907 1187.62 957.399C1161.86 1020.99 1123.02 1079.61 1072.7 1126.51C1008.1 1193.86 919.611 1233.42 829.679 1253.83C719 1271.92 602.001 1262.47 498.704 1217.26C434.439 1187.73 375.867 1146 327.137 1094.71C267.648 1026.92 223.502 945.193 202.708 857.238C187.8 803.588 187.076 747.525 189.15 692.33C196.387 575.476 242.512 461.613 319.08 373.031C355.313 329.946 400.183 294.822 447.417 264.668C526.156 219.509 616.764 190.947 708.144 194.662C733.86 194.758 759.624 194.324 785.388 194.806C847.096 196.495 907.163 216.469 969.064 214.25C983.345 213.478 1003.27 205.035 1001.25 187.859C1000.91 161.516 974.709 144.774 952.612 136.331C906.633 122.532 859.254 114.089 813.033 101.448C793.638 96.6235 775.111 83.3556 769.997 63.1883C763.339 38.3893 779.309 12.1429 801.695 1.8663Z" fill="#33C1E7"/>
<path opacity="0.03" d="M603.693 5.21098C634.33 -7.71923 675.243 17.6587 671.962 52.0589C672.927 77.4851 648.997 95.433 625.983 99.3893C592.162 105.854 559.402 116.613 526.208 125.491C489.926 134.658 456.298 151.448 422.284 166.646C397.292 179.479 361.927 162.4 358.549 133.886C355.848 113.526 364.821 90.4153 383.976 81.0554C411.187 61.2741 444.236 53.4098 474.68 40.2866C517.137 26.7774 560.174 14.9086 603.693 5.21098Z" fill="white"/>
<path opacity="0.03" d="M217.185 216.058C244.348 207.759 273.007 233.089 275.468 259.77C273.875 281.336 258.919 298.174 246.326 314.482C175.886 395.778 127.976 495.456 103.419 599.863C97.5806 625.868 97.2911 660.847 68.5841 673.006C37.7543 689.265 -1.6153 660.751 1.762 626.785C8.85431 579.069 24.7276 533.186 37.6095 486.82C66.799 405.379 112.296 330.548 165.175 262.375C179.987 244.523 193.689 223.15 217.185 216.058Z" fill="white"/>
<path opacity="0.03" d="M1245.14 260.92C1284.22 256.481 1321.71 298.698 1305.35 336.427C1297.29 367.353 1259.81 387.231 1230.13 374.108C1204.27 365.182 1187.87 336.137 1192.65 309.312C1198.63 284.947 1218.51 261.74 1245.14 260.92Z" fill="white"/>
<path opacity="0.03" d="M1071.47 387.398C1086.61 384.938 1104.95 384.166 1116.34 396.421C1138.38 414.706 1139.93 449.589 1122.9 471.783C1102.54 498.029 1069.73 516.122 1036 514.192C911.96 514.192 787.966 514.095 663.971 514.095C606.315 513.613 558.937 556.263 527.962 601.085C511.269 623.085 508.326 656.328 482.369 670.319C456.991 685.565 421.674 667.328 414.919 639.682C407.007 623.375 415.884 606.537 421.336 591.049C451.008 523.021 504.611 464.883 572.156 433.185C598.113 421.509 625.807 410.991 654.707 411.763C773.781 411.811 892.855 411.908 1011.88 411.667C1034.51 412.439 1050.77 393.429 1071.47 387.398Z" fill="white"/>
<path opacity="0.03" d="M1251.55 480.688C1288.8 470.122 1331.98 496.851 1338.92 535.014C1350.36 575.59 1315.09 622.39 1272.39 620.653C1243.88 622.438 1215.46 604.972 1204.12 578.726C1185.79 540.707 1211.5 491.206 1251.55 480.688Z" fill="white"/>
<path opacity="0.03" d="M1390.65 614.895C1421.58 604.04 1453.57 645.001 1434.41 672.165C1426.02 690.209 1404.26 696.385 1386.16 691.126C1372.27 684.612 1359.92 671.2 1360.4 655.037C1357.26 635.834 1374.44 621.119 1390.65 614.895Z" fill="white"/>
<path opacity="0.03" d="M1353.25 765.474C1369.9 759.492 1387.94 766.391 1398.89 779.659C1415.78 794.567 1410.33 819.029 1410.33 838.906C1404.49 908.479 1383.45 975.735 1358.65 1040.68C1293.13 1190.29 1175.51 1317.42 1029.17 1390.71C965.488 1420.38 897.605 1441.37 828.418 1453.48C793.005 1461 752.236 1416.62 776.505 1384.1C793.343 1353.32 831.747 1354.72 861.516 1347.58C918.206 1330.64 975.524 1312.89 1026.23 1281.52C1183.13 1188.46 1292.99 1020.36 1314.65 839.148C1318.27 811.406 1321.36 775.124 1353.25 765.474Z" fill="white"/>
<path opacity="0.03" d="M449.859 779.354C466.408 774.192 486.045 779.933 496.514 793.925C504.33 804.346 510.12 816.119 516.247 827.553C549.634 893.024 615.347 941.32 688.248 951.741C710.972 952.417 733.697 952.754 756.421 951.452C810.554 941.754 864.639 914.301 894.215 866.296C905.746 848.782 909.171 824.465 929.242 813.851C945.936 803.092 968.756 806.035 983.134 819.351C1000.79 832.426 1001.52 857.177 998.573 876.958C985.16 921.394 953.655 957.676 919.641 987.975C863.916 1034.97 789.615 1056.15 717.486 1054.51C646.611 1056.1 575.35 1032.27 520.01 987.878C475.237 948.943 433.359 901.371 418.547 842.558C411.406 817.518 424.674 787.894 449.859 779.354Z" fill="white"/>
<path opacity="0.03" d="M38.639 785.121C69.3724 776.099 98.8031 804.371 101.457 834.043C99.2373 858.07 80.9999 881.325 56.2009 884.172C27.7351 888.032 -1.84026 863.088 0.0896225 833.754C-0.971813 810.354 16.7831 790.862 38.639 785.121Z" fill="white"/>
<path opacity="0.03" d="M91.3725 978.209C100.009 974.397 109.996 976.761 119.211 976.81C137.4 986.363 148.98 1004.12 158.918 1021.49C175.95 1052.08 197.371 1079.96 215.271 1110.02C238.574 1141.67 199.832 1189.53 164.081 1177.08C133.878 1162.66 116.943 1132.21 97.7411 1106.4C83.653 1082.04 62.955 1059.79 58.2268 1031.23C53.981 1007.98 71.35 987.376 91.3725 978.209Z" fill="white"/>
<path opacity="0.03" d="M324.272 1255.77C337.299 1247.62 354.523 1251.24 368.129 1256.35C397.125 1269.72 422.455 1289.88 452.078 1302.09C494.15 1323.51 539.985 1335.62 584.806 1349.61C614.382 1357.48 655.006 1355.6 669.335 1388.55C684.533 1419.91 653.992 1456.24 621.184 1453.73C589.872 1450.98 559.814 1440.94 529.611 1432.98C487.637 1423.09 447.881 1405.87 408.463 1388.65C376.234 1371.95 341.979 1357.62 314.14 1333.79C302.705 1321.29 290.499 1302.23 299.328 1285.2C303.284 1272.47 312.693 1262.09 324.272 1255.77Z" fill="white"/>
</svg>
