<svg width="636" height="306" viewBox="0 0 636 306" fill="none" xmlns="http://www.w3.org/2000/svg">
<mask id="path-1-inside-1_3587_24840" fill="white">
<path d="M371.499 0.0186464C372.888 0.017651 374.276 0.00932434 375.665 0.000630641C381.535 -0.0165019 387.22 0.315246 393.029 1.02025C393.846 1.11702 393.846 1.11702 394.679 1.21574C410.901 3.24314 426.033 6.99365 440.549 13.4245C441.496 13.8436 442.447 14.2552 443.398 14.6666C454.286 19.4579 463.813 25.9063 472.574 33.1039C472.917 33.3837 473.261 33.6634 473.615 33.9517C474.623 34.7732 475.626 35.5989 476.626 36.4269C476.932 36.6786 477.239 36.9303 477.554 37.1896C478.277 37.7961 478.97 38.4271 479.656 39.0623C479.656 39.3648 479.656 39.6673 479.656 39.979C479.954 40.0647 480.252 40.1503 480.559 40.2386C482.433 41.203 483.555 42.6061 484.832 44.0754C485.116 44.3986 485.4 44.7218 485.692 45.0547C490.679 50.8201 495.15 56.8352 498.732 63.3016C499.106 63.9753 499.485 64.647 499.868 65.3172C504.62 73.6423 507.846 81.9046 509.588 91.0264C509.647 91.3335 509.706 91.6407 509.766 91.9571C510.362 95.1213 510.871 98.1904 510.712 101.396C511.172 101.391 511.632 101.387 512.107 101.382C523.359 101.28 534.092 101.323 545.012 103.889C546.16 104.154 547.312 104.401 548.467 104.646C564.665 108.144 579.593 114.877 592.436 123.855C592.941 124.19 593.446 124.525 593.966 124.87C596.688 126.688 599.119 128.5 601.334 130.753C602.284 131.687 603.298 132.518 604.354 133.365C607.083 135.629 609.275 138.2 611.505 140.813C611.824 141.181 612.143 141.548 612.471 141.927C617.355 147.656 621.644 153.651 625.126 160.064C625.325 160.426 625.524 160.788 625.728 161.161C629.534 168.207 631.964 175.414 633.843 182.98C633.949 183.403 634.054 183.825 634.163 184.26C636.974 196.19 636.311 209.562 633.843 221.481C633.761 221.891 633.68 222.302 633.595 222.725C631.474 232.901 626.819 243.203 620.767 252.19C620.534 252.54 620.3 252.891 620.06 253.253C615.06 260.697 609.278 267.435 602.269 273.629C601.139 274.567 601.139 274.567 600.609 275.565C600.249 275.565 599.889 275.565 599.519 275.565C599.384 275.829 599.249 276.094 599.11 276.367C598.33 277.549 597.457 278.343 596.25 279.231C595.89 279.231 595.531 279.231 595.16 279.231C595.16 279.534 595.16 279.837 595.16 280.148C594.801 280.148 594.441 280.148 594.071 280.148C594.071 280.451 594.071 280.753 594.071 281.065C593.014 281.851 591.954 282.578 590.836 283.299C590.495 283.521 590.154 283.743 589.802 283.971C577.889 291.652 565.957 297.382 551.812 301.633C551.162 301.83 551.162 301.83 550.498 302.031C547.849 302.803 545.229 303.351 542.474 303.783C540.322 304.125 538.206 304.594 536.083 305.043C530.943 305.872 525.759 305.881 520.543 305.875C519.786 305.876 519.029 305.877 518.272 305.878C516.199 305.881 514.125 305.88 512.052 305.88C509.794 305.879 507.536 305.882 505.277 305.884C500.801 305.887 496.325 305.888 491.849 305.888C486.487 305.889 481.124 305.892 475.762 305.895C462.803 305.902 449.844 305.905 436.886 305.907C430.754 305.908 424.623 305.91 418.492 305.912C397.499 305.917 376.507 305.922 355.514 305.924C354.197 305.924 352.88 305.924 351.562 305.924C350.242 305.924 348.921 305.924 347.601 305.925C344.952 305.925 342.303 305.925 339.654 305.925C338.669 305.925 338.669 305.925 337.664 305.925C316.364 305.927 295.065 305.934 273.765 305.945C251.24 305.956 228.715 305.963 206.189 305.963C203.716 305.963 201.243 305.963 198.77 305.963C197.857 305.963 197.857 305.963 196.925 305.963C187.13 305.964 177.335 305.969 167.54 305.976C157.695 305.982 147.849 305.984 138.003 305.98C132.156 305.978 126.309 305.98 120.461 305.987C116.552 305.992 112.643 305.991 108.734 305.986C106.509 305.984 104.284 305.984 102.059 305.989C85.2238 306.031 85.2238 306.031 77.5719 304.44C76.5985 304.25 76.5985 304.25 75.6053 304.057C59.1539 300.788 44.3377 295.008 31.9445 285.165C30.7507 284.241 30.7507 284.241 29.3374 283.609C27.7655 282.778 26.8959 281.877 25.779 280.635C24.738 279.485 23.744 278.405 22.5122 277.396C21.36 276.4 20.6449 275.391 19.82 274.19C19.159 273.42 18.4887 272.657 17.8109 271.898C12.9315 266.258 9.3833 260.441 6.1992 254.023C6.05224 253.727 5.90528 253.431 5.75386 253.125C3.52687 248.534 2.3335 243.76 1.29573 238.898C1.19793 238.476 1.10013 238.055 0.999372 237.62C0.0293799 233.04 -0.0117953 228.496 0.00175842 223.858C0.00241685 223.443 0.00307527 223.027 0.00375365 222.598C0.0644113 208.462 3.59837 195.693 12.1923 183.439C12.3923 183.15 12.5923 182.861 12.7983 182.563C16.9497 176.634 22.1502 171.281 27.9924 166.48C28.4082 166.121 28.8239 165.762 29.2523 165.392C39.8704 156.667 52.5901 150.285 66.6753 146.313C67.5855 146.049 67.5855 146.049 68.5141 145.78C78.5715 143.116 88.8768 142.334 99.3651 142.647C99.3523 142.232 99.3523 142.232 99.3392 141.81C99.0773 132.015 100.738 123.55 104.269 114.23C104.391 113.905 104.514 113.58 104.641 113.245C107.915 104.809 113.242 97.0302 119.524 89.9378C119.881 89.5254 120.239 89.113 120.607 88.6881C127.273 81.4288 135.408 75.1452 144.586 70.2293C145.163 69.9043 145.739 69.5794 146.333 69.2446C154.005 65.0526 162.507 61.8327 171.283 59.6875C171.866 59.5375 172.45 59.3874 173.051 59.2328C187.561 55.9556 204.523 55.5149 219.228 58.3125C219.588 58.3788 219.948 58.445 220.319 58.5133C229.953 60.335 238.613 63.6386 247.014 67.9376C247.104 67.5672 247.104 67.5672 247.195 67.1892C250.381 57.691 259.661 47.7554 267.556 40.6701C268.812 39.5442 268.812 39.5442 269.888 38.3712C271.078 37.1339 272.359 36.0511 273.711 34.9373C274.339 34.3998 274.966 33.8614 275.592 33.3223C279.149 30.2781 282.628 27.3193 286.787 24.8538C287.445 24.4484 288.102 24.0425 288.76 23.6364C309.116 11.1798 332.099 3.33964 357.07 0.561916C357.451 0.51705 357.832 0.472184 358.224 0.425959C362.632 -0.0239542 367.065 0.0182922 371.499 0.0186464Z"/>
</mask>
<path d="M371.499 0.0186464C372.888 0.017651 374.276 0.00932434 375.665 0.000630641C381.535 -0.0165019 387.22 0.315246 393.029 1.02025C393.846 1.11702 393.846 1.11702 394.679 1.21574C410.901 3.24314 426.033 6.99365 440.549 13.4245C441.496 13.8436 442.447 14.2552 443.398 14.6666C454.286 19.4579 463.813 25.9063 472.574 33.1039C472.917 33.3837 473.261 33.6634 473.615 33.9517C474.623 34.7732 475.626 35.5989 476.626 36.4269C476.932 36.6786 477.239 36.9303 477.554 37.1896C478.277 37.7961 478.97 38.4271 479.656 39.0623C479.656 39.3648 479.656 39.6673 479.656 39.979C479.954 40.0647 480.252 40.1503 480.559 40.2386C482.433 41.203 483.555 42.6061 484.832 44.0754C485.116 44.3986 485.4 44.7218 485.692 45.0547C490.679 50.8201 495.15 56.8352 498.732 63.3016C499.106 63.9753 499.485 64.647 499.868 65.3172C504.62 73.6423 507.846 81.9046 509.588 91.0264C509.647 91.3335 509.706 91.6407 509.766 91.9571C510.362 95.1213 510.871 98.1904 510.712 101.396C511.172 101.391 511.632 101.387 512.107 101.382C523.359 101.28 534.092 101.323 545.012 103.889C546.16 104.154 547.312 104.401 548.467 104.646C564.665 108.144 579.593 114.877 592.436 123.855C592.941 124.19 593.446 124.525 593.966 124.87C596.688 126.688 599.119 128.5 601.334 130.753C602.284 131.687 603.298 132.518 604.354 133.365C607.083 135.629 609.275 138.2 611.505 140.813C611.824 141.181 612.143 141.548 612.471 141.927C617.355 147.656 621.644 153.651 625.126 160.064C625.325 160.426 625.524 160.788 625.728 161.161C629.534 168.207 631.964 175.414 633.843 182.98C633.949 183.403 634.054 183.825 634.163 184.26C636.974 196.19 636.311 209.562 633.843 221.481C633.761 221.891 633.68 222.302 633.595 222.725C631.474 232.901 626.819 243.203 620.767 252.19C620.534 252.54 620.3 252.891 620.06 253.253C615.06 260.697 609.278 267.435 602.269 273.629C601.139 274.567 601.139 274.567 600.609 275.565C600.249 275.565 599.889 275.565 599.519 275.565C599.384 275.829 599.249 276.094 599.11 276.367C598.33 277.549 597.457 278.343 596.25 279.231C595.89 279.231 595.531 279.231 595.16 279.231C595.16 279.534 595.16 279.837 595.16 280.148C594.801 280.148 594.441 280.148 594.071 280.148C594.071 280.451 594.071 280.753 594.071 281.065C593.014 281.851 591.954 282.578 590.836 283.299C590.495 283.521 590.154 283.743 589.802 283.971C577.889 291.652 565.957 297.382 551.812 301.633C551.162 301.83 551.162 301.83 550.498 302.031C547.849 302.803 545.229 303.351 542.474 303.783C540.322 304.125 538.206 304.594 536.083 305.043C530.943 305.872 525.759 305.881 520.543 305.875C519.786 305.876 519.029 305.877 518.272 305.878C516.199 305.881 514.125 305.88 512.052 305.88C509.794 305.879 507.536 305.882 505.277 305.884C500.801 305.887 496.325 305.888 491.849 305.888C486.487 305.889 481.124 305.892 475.762 305.895C462.803 305.902 449.844 305.905 436.886 305.907C430.754 305.908 424.623 305.91 418.492 305.912C397.499 305.917 376.507 305.922 355.514 305.924C354.197 305.924 352.88 305.924 351.562 305.924C350.242 305.924 348.921 305.924 347.601 305.925C344.952 305.925 342.303 305.925 339.654 305.925C338.669 305.925 338.669 305.925 337.664 305.925C316.364 305.927 295.065 305.934 273.765 305.945C251.24 305.956 228.715 305.963 206.189 305.963C203.716 305.963 201.243 305.963 198.77 305.963C197.857 305.963 197.857 305.963 196.925 305.963C187.13 305.964 177.335 305.969 167.54 305.976C157.695 305.982 147.849 305.984 138.003 305.98C132.156 305.978 126.309 305.98 120.461 305.987C116.552 305.992 112.643 305.991 108.734 305.986C106.509 305.984 104.284 305.984 102.059 305.989C85.2238 306.031 85.2238 306.031 77.5719 304.44C76.5985 304.25 76.5985 304.25 75.6053 304.057C59.1539 300.788 44.3377 295.008 31.9445 285.165C30.7507 284.241 30.7507 284.241 29.3374 283.609C27.7655 282.778 26.8959 281.877 25.779 280.635C24.738 279.485 23.744 278.405 22.5122 277.396C21.36 276.4 20.6449 275.391 19.82 274.19C19.159 273.42 18.4887 272.657 17.8109 271.898C12.9315 266.258 9.3833 260.441 6.1992 254.023C6.05224 253.727 5.90528 253.431 5.75386 253.125C3.52687 248.534 2.3335 243.76 1.29573 238.898C1.19793 238.476 1.10013 238.055 0.999372 237.62C0.0293799 233.04 -0.0117953 228.496 0.00175842 223.858C0.00241685 223.443 0.00307527 223.027 0.00375365 222.598C0.0644113 208.462 3.59837 195.693 12.1923 183.439C12.3923 183.15 12.5923 182.861 12.7983 182.563C16.9497 176.634 22.1502 171.281 27.9924 166.48C28.4082 166.121 28.8239 165.762 29.2523 165.392C39.8704 156.667 52.5901 150.285 66.6753 146.313C67.5855 146.049 67.5855 146.049 68.5141 145.78C78.5715 143.116 88.8768 142.334 99.3651 142.647C99.3523 142.232 99.3523 142.232 99.3392 141.81C99.0773 132.015 100.738 123.55 104.269 114.23C104.391 113.905 104.514 113.58 104.641 113.245C107.915 104.809 113.242 97.0302 119.524 89.9378C119.881 89.5254 120.239 89.113 120.607 88.6881C127.273 81.4288 135.408 75.1452 144.586 70.2293C145.163 69.9043 145.739 69.5794 146.333 69.2446C154.005 65.0526 162.507 61.8327 171.283 59.6875C171.866 59.5375 172.45 59.3874 173.051 59.2328C187.561 55.9556 204.523 55.5149 219.228 58.3125C219.588 58.3788 219.948 58.445 220.319 58.5133C229.953 60.335 238.613 63.6386 247.014 67.9376C247.104 67.5672 247.104 67.5672 247.195 67.1892C250.381 57.691 259.661 47.7554 267.556 40.6701C268.812 39.5442 268.812 39.5442 269.888 38.3712C271.078 37.1339 272.359 36.0511 273.711 34.9373C274.339 34.3998 274.966 33.8614 275.592 33.3223C279.149 30.2781 282.628 27.3193 286.787 24.8538C287.445 24.4484 288.102 24.0425 288.76 23.6364C309.116 11.1798 332.099 3.33964 357.07 0.561916C357.451 0.51705 357.832 0.472184 358.224 0.425959C362.632 -0.0239542 367.065 0.0182922 371.499 0.0186464Z" fill="#33C1E7" fill-opacity="0.1" stroke="#099AEF" stroke-opacity="0.1" stroke-width="4" mask="url(#path-1-inside-1_3587_24840)"/>
</svg>
