<svg width="14" height="14" viewBox="0 0 14 14" fill="none" xmlns="http://www.w3.org/2000/svg">
<path d="M6.9399 13.8758C6.74127 13.877 6.5468 13.8189 6.38129 13.7091C6.21577 13.5993 6.08669 13.4427 6.01053 13.2593C5.93436 13.0758 5.91455 12.8739 5.95362 12.6791C5.99269 12.4844 6.08887 12.3057 6.2299 12.1658L11.4599 6.9358L6.2299 1.7058C6.04365 1.51844 5.93911 1.26498 5.93911 1.0008C5.93911 0.736612 6.04365 0.483161 6.2299 0.295798C6.32286 0.20207 6.43346 0.127675 6.55532 0.0769067C6.67718 0.026138 6.80789 0 6.9399 0C7.07191 0 7.20262 0.026138 7.32447 0.0769067C7.44633 0.127675 7.55694 0.20207 7.6499 0.295798L13.5799 6.2258C13.6744 6.31841 13.7496 6.42886 13.8011 6.55073C13.8526 6.67261 13.8794 6.80349 13.8799 6.9358C13.8794 7.06811 13.8526 7.19899 13.8011 7.32086C13.7496 7.44274 13.6744 7.55318 13.5799 7.6458L7.6499 13.5758C7.55728 13.6703 7.44684 13.7455 7.32496 13.797C7.20309 13.8484 7.07221 13.8752 6.9399 13.8758Z" fill="white"/>
<path opacity="0.3" d="M12.8802 7.93555L1.00024 7.93555C0.735028 7.93555 0.480674 7.83019 0.293138 7.64265C0.105601 7.45512 0.000244141 7.20076 0.000244141 6.93555C0.000244141 6.67033 0.105601 6.41598 0.293138 6.22844C0.480674 6.0409 0.735028 5.93555 1.00024 5.93555L12.8802 5.93555C13.1455 5.93555 13.3998 6.0409 13.5874 6.22844C13.7749 6.41598 13.8802 6.67033 13.8802 6.93555C13.8802 7.20076 13.7749 7.45512 13.5874 7.64265C13.3998 7.83019 13.1455 7.93555 12.8802 7.93555Z" fill="white"/>
</svg>
