<svg width="19" height="19" viewBox="0 0 19 19" fill="none" xmlns="http://www.w3.org/2000/svg">
<g clip-path="url(#clip0_3587_24925)">
<path d="M2.375 15.8318L3.40417 12.7443C2.51469 11.4288 2.19291 9.87087 2.49867 8.36028C2.80443 6.84969 3.71692 5.4892 5.06648 4.53176C6.41604 3.57432 8.11083 3.08508 9.83574 3.15502C11.5606 3.22496 13.1983 3.84931 14.4442 4.91198C15.6901 5.97466 16.4594 7.40334 16.6092 8.9324C16.759 10.4615 16.279 11.9868 15.2585 13.2249C14.238 14.463 12.7464 15.3296 11.061 15.6634C9.37565 15.9973 7.61124 15.7758 6.09583 15.0401L2.375 15.8318" stroke="#33C1E7" stroke-width="1.2" stroke-linecap="round" stroke-linejoin="round"/>
<path d="M6.33301 10.2904L8.70801 8.70703L10.2913 10.2904L12.6663 8.70703" stroke="#33C1E7" stroke-width="1.2" stroke-linecap="round" stroke-linejoin="round"/>
</g>
<defs>
<clipPath id="clip0_3587_24925">
<rect width="19" height="19" fill="white"/>
</clipPath>
</defs>
</svg>
