<svg width="19" height="19" viewBox="0 0 19 19" fill="none" xmlns="http://www.w3.org/2000/svg">
<path d="M12.4687 9.5C12.4687 8.91283 12.2946 8.33886 11.9684 7.85065C11.6422 7.36244 11.1786 6.98193 10.6361 6.75723C10.0936 6.53254 9.4967 6.47375 8.92082 6.58829C8.34494 6.70284 7.81596 6.98559 7.40078 7.40078C6.98559 7.81596 6.70284 8.34494 6.58829 8.92082C6.47375 9.4967 6.53254 10.0936 6.75723 10.6361C6.98193 11.1786 7.36244 11.6422 7.85065 11.9684C8.33886 12.2946 8.91283 12.4687 9.5 12.4687C10.2871 12.4678 11.0417 12.1548 11.5982 11.5982C12.1548 11.0417 12.4678 10.2871 12.4687 9.5ZM7.71875 9.5C7.71875 9.1477 7.82322 8.80331 8.01894 8.51039C8.21467 8.21746 8.49286 7.98916 8.81834 7.85434C9.14382 7.71952 9.50197 7.68425 9.8475 7.75298C10.193 7.8217 10.5104 7.99135 10.7595 8.24046C11.0086 8.48958 11.1783 8.80696 11.247 9.15249C11.3157 9.49802 11.2805 9.85617 11.1457 10.1816C11.0108 10.5071 10.7825 10.7853 10.4896 10.981C10.1967 11.1768 9.85229 11.2812 9.5 11.2812C9.02775 11.2807 8.57499 11.0929 8.24106 10.7589C7.90713 10.425 7.71929 9.97225 7.71875 9.5Z" fill="#33C1E7"/>
<path d="M5.93701 14.7691L9.1027 18.4062H9.89632L13.062 14.7691V13.6562H5.93701V14.7691ZM11.4227 14.8438L9.49951 17.0534L7.57632 14.8438H11.4227Z" fill="#33C1E7"/>
<path d="M9.1027 0.59375L5.93701 4.23091V5.34375H13.062V4.23091L9.89632 0.59375H9.1027ZM7.57632 4.15625L9.49951 1.94661L11.4227 4.15625H7.57632Z" fill="#33C1E7"/>
<path d="M0.593994 9.10319V9.89681L4.2312 13.0625H5.34399V5.9375H4.2312L0.593994 9.10319ZM4.15649 11.4232L1.94682 9.5L4.15649 7.57677V11.4232Z" fill="#33C1E7"/>
<path d="M14.7688 5.9375H13.656V13.0625H14.7688L18.406 9.89681V9.10319L14.7688 5.9375ZM14.8435 11.4232V7.57677L17.0532 9.5L14.8435 11.4232Z" fill="#33C1E7"/>
</svg>
