<svg width="19" height="19" viewBox="0 0 19 19" fill="none" xmlns="http://www.w3.org/2000/svg">
<g clip-path="url(#clip0_3587_24913)">
<path d="M9.5 16.625C13.435 16.625 16.625 13.435 16.625 9.5C16.625 5.56497 13.435 2.375 9.5 2.375C5.56497 2.375 2.375 5.56497 2.375 9.5C2.375 13.435 5.56497 16.625 9.5 16.625Z" stroke="#33C1E7" stroke-width="1.2" stroke-linecap="round" stroke-linejoin="round"/>
<path d="M11.7167 7.12459C11.5733 6.87582 11.3649 6.67073 11.1139 6.53128C10.8629 6.39183 10.5787 6.32327 10.2917 6.33293H8.70833C8.28841 6.33293 7.88568 6.49974 7.58875 6.79668C7.29182 7.09361 7.125 7.49634 7.125 7.91626C7.125 8.33619 7.29182 8.73891 7.58875 9.03585C7.88568 9.33278 8.28841 9.49959 8.70833 9.49959H10.2917C10.7116 9.49959 11.1143 9.66641 11.4113 9.96334C11.7082 10.2603 11.875 10.663 11.875 11.0829C11.875 11.5029 11.7082 11.9056 11.4113 12.2025C11.1143 12.4994 10.7116 12.6663 10.2917 12.6663H8.70833C8.42135 12.6759 8.13714 12.6074 7.88612 12.4679C7.63511 12.3285 7.42674 12.1234 7.28333 11.8746" stroke="#33C1E7" stroke-width="1.2" stroke-linecap="round" stroke-linejoin="round"/>
<path d="M9.5 12.6667V14.25M9.5 4.75V6.33333V4.75Z" stroke="#33C1E7" stroke-width="2.2025" stroke-linecap="round" stroke-linejoin="round"/>
</g>
<defs>
<clipPath id="clip0_3587_24913">
<rect width="19" height="19" fill="white"/>
</clipPath>
</defs>
</svg>
