<svg width="17" height="10" viewBox="0 0 17 10" fill="none" xmlns="http://www.w3.org/2000/svg">
<path d="M6.84285 1.8852C6.86582 1.90858 6.88879 1.93197 6.91245 1.95607C7.09264 2.14203 7.26595 2.33879 7.4393 2.53547C7.45419 2.55233 7.46908 2.56918 7.48442 2.58655C7.60284 2.72125 7.71866 2.85902 7.83285 2.99981C7.85092 3.02208 7.86899 3.04435 7.8876 3.06729C8.08346 3.30991 8.27471 3.55848 8.46516 3.80833C8.52421 3.88576 8.58339 3.96301 8.64259 4.04024C8.68087 4.09036 8.71916 4.14048 8.75743 4.19062C8.77478 4.21325 8.79212 4.23588 8.81 4.25919C8.90738 4.38721 9.0003 4.51837 9.08988 4.65582C9.1555 4.75263 9.22841 4.83846 9.30165 4.92522C9.44061 5.09198 9.5748 5.26352 9.70705 5.43935C9.8351 5.60895 9.96433 5.76539 10.1077 5.9127C10.1807 5.99 10.2491 6.07269 10.3175 6.15668C10.4627 6.33386 10.617 6.49269 10.7742 6.65126C10.8346 6.713 10.8941 6.77635 10.9536 6.83968C11.2976 7.20466 11.6562 7.53918 12.0369 7.8352C12.0534 7.84811 12.0699 7.86101 12.0868 7.87431C12.2973 8.0383 12.5078 8.17515 12.7374 8.28734C12.8074 8.3229 12.8074 8.3229 12.8322 8.35542C12.9427 8.36422 13.0533 8.36425 13.164 8.36501C13.2011 8.36538 13.2381 8.36604 13.2752 8.36701C13.6168 8.37599 13.9186 8.30545 14.2317 8.11563C14.2483 8.10579 14.2649 8.09595 14.282 8.08582C14.9167 7.70243 15.3958 7.03759 15.6405 6.177C15.8295 5.39872 15.8732 4.56139 15.6156 3.8035C15.6048 3.75833 15.5943 3.71297 15.5846 3.66735C15.4174 3.00464 15.003 2.48881 14.5719 2.11279C14.5349 2.08035 14.5348 2.08035 14.4971 2.04726C14.3167 1.89936 14.1341 1.81466 13.9298 1.7422C13.891 1.72807 13.8524 1.71283 13.8139 1.6969C13.636 1.62609 13.4713 1.60855 13.2858 1.61086C13.2573 1.61118 13.2288 1.6115 13.1994 1.61182C12.2716 1.63716 11.4259 2.57024 10.7446 3.3158C10.7297 3.33216 10.7147 3.34853 10.6993 3.36539C10.5713 3.50556 10.4442 3.64683 10.319 3.79131C9.92956 4.23988 9.92956 4.23988 9.69433 4.23469C9.48554 4.20858 9.31323 3.9021 9.18506 3.70342C9.10752 3.56123 9.09053 3.44006 9.09031 3.26677C9.12749 3.05273 9.26022 2.91112 9.37932 2.76916C9.39591 2.74916 9.4125 2.72915 9.42959 2.70854C9.54382 2.57184 9.66091 2.441 9.7819 2.31461C9.84519 2.24787 9.90705 2.17948 9.96873 2.11023C10.1175 1.94337 10.2696 1.78488 10.4281 1.63384C10.4765 1.58757 10.5246 1.54084 10.5728 1.49414C10.8377 1.23887 11.1099 1.00384 11.3908 0.779732C11.4132 0.761461 11.4132 0.761461 11.4361 0.742821C12.1922 0.128643 13.0536 -0.150948 13.9399 0.0811649C13.9985 0.101045 14.056 0.12346 14.1136 0.147748C14.1345 0.156282 14.1554 0.164817 14.1769 0.17361C14.7853 0.428592 15.2909 0.766244 15.7613 1.33399C15.8044 1.38543 15.8479 1.43356 15.8937 1.48081C16.0312 1.63673 16.1385 1.81573 16.2369 2.01525C16.2592 2.05189 16.2814 2.08846 16.3037 2.12498C16.5481 2.54829 16.7339 3.05959 16.8369 3.56968C16.8569 3.67229 16.8569 3.67229 16.8833 3.7654C17.056 4.48753 17.0133 5.3143 16.908 6.04695C16.9046 6.07123 16.9013 6.09551 16.8979 6.12053C16.789 6.89349 16.4792 7.63505 16.0878 8.22536C16.0749 8.24518 16.062 8.26499 16.0486 8.2854C15.5419 9.05451 14.8524 9.60095 14.0997 9.85104C14.0829 9.85691 14.0661 9.86278 14.0489 9.86882C13.3053 10.1229 12.6456 9.97105 11.9624 9.55842C11.9453 9.54824 11.9283 9.53806 11.9107 9.52757C11.6224 9.35377 11.3572 9.13652 11.0926 8.90815C11.0726 8.89098 11.0526 8.87382 11.032 8.85614C10.7638 8.62466 10.5105 8.37747 10.2641 8.10778C10.2101 8.04899 10.1551 7.99181 10.1 7.93477C9.96837 7.79744 9.83854 7.65721 9.70879 7.51682C9.60904 7.40893 9.50855 7.30254 9.40727 7.19712C9.29405 7.07646 9.19109 6.94572 9.0897 6.80852C9.02731 6.72445 8.96361 6.64548 8.89521 6.56979C8.7631 6.4192 8.64043 6.25645 8.51707 6.09385C8.47354 6.03648 8.42992 5.97921 8.38628 5.92196C8.2937 5.80047 8.20122 5.67885 8.10875 5.55721C8.00139 5.41598 7.894 5.27482 7.78649 5.13378C7.74378 5.0777 7.70115 5.02151 7.65852 4.96533C7.53162 4.79854 7.40404 4.63645 7.26533 4.48629C7.22338 4.4328 7.18192 4.37865 7.14107 4.32372C6.93035 4.04433 6.71568 3.78557 6.48036 3.54187C6.42876 3.48725 6.3794 3.43102 6.33027 3.3727C6.17045 3.18764 5.99575 3.02579 5.82391 2.86061C5.80883 2.84604 5.79375 2.83147 5.77821 2.81646C5.41381 2.46536 5.02898 2.16623 4.63101 1.8852C4.60663 1.86768 4.58225 1.85016 4.55713 1.83211C4.2996 1.65376 4.05065 1.60682 3.76119 1.60883C3.7295 1.60904 3.69781 1.60925 3.66516 1.60947C3.0119 1.62587 2.41762 2.00986 1.95867 2.61506C1.51311 3.23049 1.22135 4.04558 1.22468 4.90294C1.24393 5.7636 1.40734 6.55635 1.84757 7.21744C1.86564 7.24615 1.88371 7.27486 1.90233 7.30444C2.33448 7.96623 2.93174 8.30769 3.58722 8.38793C4.47704 8.45786 5.30255 7.66711 5.97302 6.98984C5.9886 6.97422 6.00417 6.95861 6.02022 6.94252C6.12151 6.84075 6.22153 6.73707 6.32095 6.63219C6.33833 6.6139 6.35571 6.59561 6.37362 6.57677C6.64934 6.28672 6.64934 6.28672 6.90498 5.96731C7.01655 5.8164 7.09067 5.76379 7.24669 5.74416C7.49963 5.77174 7.65039 6.00964 7.81208 6.24203C7.90778 6.39688 7.91368 6.53425 7.91964 6.7277C7.89705 6.91349 7.78131 7.03917 7.68316 7.1646C7.6686 7.18339 7.65404 7.20219 7.63904 7.22155C7.53439 7.35577 7.4273 7.48435 7.31504 7.6076C7.29111 7.63455 7.26717 7.6615 7.24252 7.68927C6.80819 8.17729 6.34252 8.60373 5.8642 9.01437C5.80352 9.06686 5.7434 9.12028 5.68334 9.17397C5.26321 9.54321 4.78358 9.83124 4.28308 9.94858C4.25748 9.95462 4.23189 9.96066 4.20551 9.96687C3.62863 10.052 3.02839 9.98036 2.49586 9.66676C2.41845 9.6203 2.41845 9.6203 2.33005 9.59132C2.2485 9.5597 2.1918 9.521 2.12095 9.46088C2.07909 9.43155 2.03715 9.40243 1.99513 9.3735C1.76205 9.20709 1.55196 9.02011 1.35781 8.78267C1.30744 8.72114 1.25583 8.66315 1.20297 8.60536C0.756801 8.0949 0.48177 7.43582 0.257038 6.72973C0.244769 6.69591 0.232499 6.66209 0.219857 6.62724C-0.109934 5.61404 -0.0431576 4.26466 0.250825 3.25483C0.269022 3.19904 0.287735 3.14353 0.306743 3.0882C0.313534 3.068 0.320326 3.0478 0.327323 3.02699C0.433319 2.71321 0.548094 2.42245 0.704376 2.14531C0.714199 2.12769 0.724022 2.11007 0.734143 2.09192C0.998676 1.62103 1.31097 1.21825 1.67361 0.877273C1.68743 0.864249 1.70126 0.851225 1.7155 0.837806C2.0529 0.525416 2.44316 0.30282 2.84166 0.161973C2.85964 0.155597 2.87763 0.149221 2.89616 0.142652C4.4291 -0.373826 5.68465 0.700759 6.84285 1.8852Z" fill="white" fill-opacity="0.7"/>
</svg>
