<svg width="19" height="19" viewBox="0 0 19 19" fill="none" xmlns="http://www.w3.org/2000/svg">
<g clip-path="url(#clip0_3587_24916)">
<path d="M9.50008 15.834L7.12508 13.459H5.54175C4.91186 13.459 4.30777 13.2088 3.86237 12.7634C3.41697 12.318 3.16675 11.7139 3.16675 11.084V6.33398C3.16675 5.7041 3.41697 5.1 3.86237 4.65461C4.30777 4.20921 4.91186 3.95898 5.54175 3.95898H13.4584C14.0883 3.95898 14.6924 4.20921 15.1378 4.65461C15.5832 5.1 15.8334 5.7041 15.8334 6.33398V11.084C15.8334 11.7139 15.5832 12.318 15.1378 12.7634C14.6924 13.2088 14.0883 13.459 13.4584 13.459H11.8751L9.50008 15.834Z" stroke="#33C1E7" stroke-width="1.2" stroke-linecap="round" stroke-linejoin="round"/>
<path d="M6.33301 7.125H12.6663" stroke="#33C1E7" stroke-width="1.2" stroke-linecap="round" stroke-linejoin="round"/>
<path d="M6.33301 10.291H11.083" stroke="#33C1E7" stroke-width="1.2" stroke-linecap="round" stroke-linejoin="round"/>
</g>
<defs>
<clipPath id="clip0_3587_24916">
<rect width="19" height="19" fill="white"/>
</clipPath>
</defs>
</svg>
