<svg width="35" height="43" viewBox="0 0 35 43" fill="none" xmlns="http://www.w3.org/2000/svg">
<path d="M17.1354 7.34375L18.1739 6.30519C17.6003 5.73161 16.6705 5.73161 16.0969 6.30519L17.1354 7.34375ZM17.1354 23.0104L16.0969 24.0489C16.6705 24.6225 17.6003 24.6225 18.1739 24.0489L17.1354 23.0104ZM12.1802 10.2219C11.6066 10.7954 11.6066 11.7254 12.1802 12.299C12.7538 12.8726 13.6837 12.8726 14.2573 12.299L12.1802 10.2219ZM20.0136 12.299C20.5872 12.8726 21.517 12.8726 22.0906 12.299C22.6642 11.7254 22.6642 10.7954 22.0906 10.2219L20.0136 12.299ZM14.2573 18.0552C13.6837 17.4816 12.7538 17.4816 12.1802 18.0552C11.6066 18.6288 11.6066 19.5587 12.1802 20.1323L14.2573 18.0552ZM22.0906 20.1323C22.6642 19.5587 22.6642 18.6288 22.0906 18.0552C21.517 17.4816 20.5872 17.4816 20.0136 18.0552L22.0906 20.1323ZM0 17.1354V24.9687H2.9375V17.1354H0ZM34.2708 24.9687V17.1354H31.3333V24.9687H34.2708ZM15.6667 7.34375V23.0104H18.6042V7.34375H15.6667ZM16.0969 6.30519L12.1802 10.2219L14.2573 12.299L18.1739 8.38231L16.0969 6.30519ZM16.0969 8.38231L20.0136 12.299L22.0906 10.2219L18.1739 6.30519L16.0969 8.38231ZM18.1739 21.9719L14.2573 18.0552L12.1802 20.1323L16.0969 24.0489L18.1739 21.9719ZM18.1739 24.0489L22.0906 20.1323L20.0136 18.0552L16.0969 21.9719L18.1739 24.0489ZM34.2708 17.1354C34.2708 7.67179 26.5991 0 17.1354 0V2.9375C24.9768 2.9375 31.3333 9.29413 31.3333 17.1354H34.2708ZM17.1354 42.1042C26.5991 42.1042 34.2708 34.4324 34.2708 24.9687H31.3333C31.3333 32.8101 24.9768 39.1667 17.1354 39.1667V42.1042ZM0 24.9687C0 34.4324 7.67179 42.1042 17.1354 42.1042V39.1667C9.29413 39.1667 2.9375 32.8101 2.9375 24.9687H0ZM2.9375 17.1354C2.9375 9.29413 9.29413 2.9375 17.1354 2.9375V0C7.67179 0 0 7.67179 0 17.1354H2.9375Z" fill="#33C1E7" fill-opacity="0.7"/>
</svg>
