<svg width="19" height="19" viewBox="0 0 19 19" fill="none" xmlns="http://www.w3.org/2000/svg">
<g clip-path="url(#clip0_3587_24892)">
<path d="M19 0H0V19H19V0Z" fill="white" fill-opacity="0.01"/>
<path d="M7.52083 7.91667C9.05112 7.91667 10.2917 6.67612 10.2917 5.14583C10.2917 3.61555 9.05112 2.375 7.52083 2.375C5.99054 2.375 4.75 3.61555 4.75 5.14583C4.75 6.67612 5.99054 7.91667 7.52083 7.91667Z" stroke="#33C1E7" stroke-width="1.2" stroke-linecap="round" stroke-linejoin="round"/>
<path d="M12.9067 2.77148C13.7114 3.25634 14.2496 4.13857 14.2496 5.14648C14.2496 6.15439 13.7114 7.03663 12.9067 7.52148" stroke="#33C1E7" stroke-width="1.2" stroke-linecap="round" stroke-linejoin="round"/>
<path d="M1.58301 16.1487V16.6237H13.458V16.1487C13.458 14.3752 13.458 13.4885 13.1129 12.8111C12.8093 12.2152 12.3248 11.7308 11.729 11.4272C11.0516 11.082 10.1648 11.082 8.39134 11.082H6.64967C4.87618 11.082 3.98944 11.082 3.31204 11.4272C2.71619 11.7308 2.23175 12.2152 1.92815 12.8111C1.58301 13.4885 1.58301 14.3752 1.58301 16.1487Z" stroke="#33C1E7" stroke-width="1.2" stroke-linecap="round" stroke-linejoin="round"/>
<path d="M17.4161 16.6243V16.1493C17.4161 14.3758 17.4161 13.489 17.0709 12.8116C16.7673 12.2158 16.2829 11.7313 15.687 11.4277" stroke="#33C1E7" stroke-width="1.2" stroke-linecap="round" stroke-linejoin="round"/>
</g>
<defs>
<clipPath id="clip0_3587_24892">
<rect width="19" height="19" fill="white"/>
</clipPath>
</defs>
</svg>
