<svg width="19" height="19" viewBox="0 0 19 19" fill="none" xmlns="http://www.w3.org/2000/svg">
<path d="M1.979 13.8542C1.979 13.4169 2.33344 13.0625 2.77067 13.0625H16.229C16.6662 13.0625 17.0207 13.4169 17.0207 13.8542V16.625H1.979V13.8542Z" stroke="#33C1E7" stroke-width="1.2" stroke-linecap="round" stroke-linejoin="round"/>
<path d="M16.6247 7.125H13.458L11.083 4.75L13.458 2.375H16.6247" stroke="#33C1E7" stroke-width="1.2" stroke-linecap="round" stroke-linejoin="round"/>
<path d="M3.16634 6.33268C4.04079 6.33268 4.74967 5.6238 4.74967 4.74935C4.74967 3.8749 4.04079 3.16602 3.16634 3.16602C2.29189 3.16602 1.58301 3.8749 1.58301 4.74935C1.58301 5.6238 2.29189 6.33268 3.16634 6.33268Z" stroke="#33C1E7" stroke-width="1.2"/>
<path d="M4.75 4.75H11.0833" stroke="#33C1E7" stroke-width="1.2" stroke-linecap="round" stroke-linejoin="round"/>
<path d="M3.95801 6.33398L7.12467 13.0632" stroke="#33C1E7" stroke-width="1.2" stroke-linecap="round" stroke-linejoin="round"/>
</svg>
