<svg width="19" height="19" viewBox="0 0 19 19" fill="none" xmlns="http://www.w3.org/2000/svg">
<g clip-path="url(#clip0_3587_24895)">
<path d="M19 0H0V19H19V0Z" fill="white" fill-opacity="0.01"/>
<path d="M14.6453 7.125H4.35368C3.91645 7.125 3.56201 7.47944 3.56201 7.91667V15.8333C3.56201 16.2706 3.91645 16.625 4.35368 16.625H14.6453C15.0826 16.625 15.437 16.2706 15.437 15.8333V7.91667C15.437 7.47944 15.0826 7.125 14.6453 7.125Z" stroke="#33C1E7" stroke-width="1.2"/>
<path d="M6.72868 11.0833C7.1659 11.0833 7.52035 10.7289 7.52035 10.2917C7.52035 9.85444 7.1659 9.5 6.72868 9.5C6.29145 9.5 5.93701 9.85444 5.93701 10.2917C5.93701 10.7289 6.29145 11.0833 6.72868 11.0833Z" fill="#33C1E7"/>
<path d="M12.2707 11.0833C12.7079 11.0833 13.0623 10.7289 13.0623 10.2917C13.0623 9.85444 12.7079 9.5 12.2707 9.5C11.8334 9.5 11.479 9.85444 11.479 10.2917C11.479 10.7289 11.8334 11.0833 12.2707 11.0833Z" fill="#33C1E7"/>
<path d="M7.91667 12.666C7.47943 12.666 7.125 13.0204 7.125 13.4577C7.125 13.8949 7.47943 14.2493 7.91667 14.2493V12.666ZM11.0833 14.2493C11.5206 14.2493 11.875 13.8949 11.875 13.4577C11.875 13.0204 11.5206 12.666 11.0833 12.666V14.2493ZM7.91667 14.2493H11.0833V12.666H7.91667V14.2493Z" fill="#33C1E7"/>
<path d="M9.5 3.95898V7.12565" stroke="#33C1E7" stroke-width="1.2" stroke-linecap="round" stroke-linejoin="round"/>
<path d="M1.58301 10.291V13.4577" stroke="#33C1E7" stroke-width="1.2" stroke-linecap="round" stroke-linejoin="round"/>
<path d="M17.4167 10.291V13.4577" stroke="#33C1E7" stroke-width="1.2" stroke-linecap="round" stroke-linejoin="round"/>
<path d="M9.49967 3.95833C9.9369 3.95833 10.2913 3.60389 10.2913 3.16667C10.2913 2.72944 9.9369 2.375 9.49967 2.375C9.06245 2.375 8.70801 2.72944 8.70801 3.16667C8.70801 3.60389 9.06245 3.95833 9.49967 3.95833Z" stroke="#33C1E7" stroke-width="1.2"/>
</g>
<defs>
<clipPath id="clip0_3587_24895">
<rect width="19" height="19" fill="white"/>
</clipPath>
</defs>
</svg>
